<svg width="20" height="20" viewBox="0 0 20 20" fill="none" xmlns="http://www.w3.org/2000/svg">
<path d="M19.5188 9.69852C19.5188 4.49316 15.2956 0.269949 10.0902 0.269949C4.88484 0.269949 0.661621 4.49316 0.661621 9.69852C0.661621 13.5657 2.98193 16.8804 6.30894 18.3414C6.28439 17.6784 6.29667 16.8804 6.46854 16.1684C6.46854 16.1684 6.65269 15.4072 7.68394 11.0367C7.37702 10.4351 7.37702 9.53892 7.37702 9.53892C7.37702 8.13937 8.18729 7.09584 9.19399 7.09584C10.0534 7.09584 10.4708 7.74651 10.4708 8.51995C10.4708 9.37932 9.91832 10.6684 9.63595 11.8592C9.40269 12.8659 10.1393 13.6762 11.1214 13.6762C12.9139 13.6762 14.117 11.3804 14.117 8.66727C14.117 6.59249 12.7174 5.04562 10.1884 5.04562C7.32792 5.04562 5.54778 7.18178 5.54778 9.56348C5.54778 10.386 5.79332 10.963 6.1739 11.4173C6.34577 11.626 6.37033 11.6996 6.30894 11.9452C6.25984 12.117 6.16162 12.5345 6.11251 12.6941C6.05113 12.9396 5.8547 13.0255 5.646 12.9396C4.33238 12.3994 3.71854 10.9508 3.71854 9.33022C3.71854 6.65388 5.97747 3.43736 10.4462 3.43736C14.0556 3.43736 16.425 6.05232 16.425 8.83915C16.425 12.5467 14.3625 15.309 11.3301 15.309C10.3112 15.309 9.35359 14.7566 9.03439 14.1304C8.48193 16.3034 8.37144 16.7208 8.37144 16.7208C8.17501 17.4452 7.76988 18.1695 7.41385 18.7342C8.27323 18.992 9.15716 19.1271 10.0902 19.1271C15.2956 19.1271 19.5188 14.9039 19.5188 9.69852Z" fill="white"/>
</svg>
